<?xml version="1.0" encoding="UTF-8"?>
<svg xmlns="http://www.w3.org/2000/svg" xmlns:xlink="http://www.w3.org/1999/xlink" width="1px" height="15px" viewBox="0 0 1 1" version="1.1">
<g id="surface1">
<path style=" stroke:none;fill-rule:nonzero;fill:rgb(0%,0%,0%);fill-opacity:1;" d="M 0.929688 0.0625 L 0.0703125 0.0625 C 0.03125 0.0625 0 0.0898438 0 0.125 L 0 0.875 C 0 0.910156 0.03125 0.9375 0.0703125 0.9375 L 0.929688 0.9375 C 0.96875 0.9375 1 0.910156 1 0.875 L 1 0.125 C 1 0.0898438 0.96875 0.0625 0.929688 0.0625 Z M 0.300781 0.8125 L 0.152344 0.8125 L 0.152344 0.394531 L 0.300781 0.394531 Z M 0.226562 0.335938 C 0.179688 0.335938 0.140625 0.304688 0.140625 0.261719 C 0.140625 0.222656 0.179688 0.1875 0.226562 0.1875 C 0.277344 0.1875 0.3125 0.222656 0.3125 0.261719 C 0.3125 0.304688 0.277344 0.335938 0.226562 0.335938 Z M 0.859375 0.8125 L 0.710938 0.8125 L 0.710938 0.609375 C 0.710938 0.5625 0.707031 0.5 0.632812 0.5 C 0.554688 0.5 0.542969 0.550781 0.542969 0.605469 L 0.542969 0.8125 L 0.394531 0.8125 L 0.394531 0.394531 L 0.539062 0.394531 L 0.539062 0.453125 C 0.558594 0.417969 0.609375 0.382812 0.679688 0.382812 C 0.828125 0.382812 0.859375 0.472656 0.859375 0.582031 Z M 0.859375 0.8125 "/>
</g>
</svg>
